<?xml version="1.0" standalone="no"?>
<!DOCTYPE svg PUBLIC "-//W3C//DTD SVG 20010904//EN"
 "http://www.w3.org/TR/2001/REC-SVG-20010904/DTD/svg10.dtd">
<svg version="1.0" xmlns="http://www.w3.org/2000/svg"
 width="301.000000pt" height="301.000000pt" viewBox="0 0 301.000000 301.000000"
 preserveAspectRatio="xMidYMid meet">
<metadata>
Created by potrace 1.14, written by Peter Selinger 2001-2017
</metadata>
<g transform="translate(0.000000,301.000000) scale(0.100000,-0.100000)"
fill="#000000" stroke="none">
<path d="M1584 2994 c-127 -26 -260 -105 -330 -198 -24 -31 -73 -115 -90 -154
-1 -2 -42 -5 -90 -7 -206 -11 -257 -16 -349 -40 -258 -65 -479 -238 -609 -476
-117 -214 -141 -487 -64 -714 107 -312 374 -558 676 -620 110 -23 205 -27 818
-29 l571 -1 40 -27 c130 -86 111 -273 -32 -322 -28 -10 -232 -13 -893 -14
-471 0 -873 -3 -892 -6 -72 -13 -136 -38 -183 -72 -84 -61 -145 -169 -146
-261 -1 -42 0 -43 32 -44 182 -4 2234 0 2272 5 192 26 381 124 498 259 148
169 209 361 184 582 -28 254 -216 501 -457 599 -140 57 -153 58 -930 59 l-715
2 -41 24 c-96 54 -119 186 -48 271 54 63 55 63 429 66 348 4 567 10 620 19 17
3 57 10 89 16 82 14 232 70 312 114 37 21 105 67 153 103 47 36 115 78 151 93
63 27 70 28 248 27 100 0 186 2 189 6 11 11 7 367 -5 374 -5 4 -98 6 -206 6
-216 -1 -237 3 -306 66 -127 116 -316 209 -550 270 -137 36 -249 44 -346 24z"/>
</g>
</svg>
